<svg xmlns="http://www.w3.org/2000/svg" width="21.5" height="21.5" viewBox="0 0 21.5 21.5">
  <g id="button-arrow-white" transform="translate(-1080.5 -589.5)">
    <circle id="Ellipse_11" data-name="Ellipse 11" cx="10.25" cy="10.25" r="10.25" transform="translate(1081 590)" fill="none" stroke="#fff" stroke-width="1"/>
    <g id="Group_23" data-name="Group 23" transform="translate(1081 590)">
      <g id="Group_21" data-name="Group 21">
        <path id="Path_67" data-name="Path 67" d="M17.484,3.019A9.7,9.7,0,0,0,10.249,0,9.815,9.815,0,0,0,3.015,3.019,9.707,9.707,0,0,0,0,10.234a9.776,9.776,0,0,0,3.015,7.247A9.745,9.745,0,0,0,10.249,20.5a9.7,9.7,0,0,0,7.235-3.019A9.776,9.776,0,0,0,20.5,10.234,9.707,9.707,0,0,0,17.484,3.019ZM16.85,16.877a9.025,9.025,0,0,1-6.6,2.733,9.025,9.025,0,0,1-6.6-2.733A9.054,9.054,0,0,1,.92,10.266,9.054,9.054,0,0,1,3.649,3.655a9.025,9.025,0,0,1,6.6-2.733,9.077,9.077,0,0,1,6.6,2.733,9.054,9.054,0,0,1,2.729,6.611A9.158,9.158,0,0,1,16.85,16.877Z" fill="#fff"/>
      </g>
      <path id="Path_68" data-name="Path 68" d="M23.5,26.589l1.777-4.895L23.5,16.8l7.489,4.895Z" transform="translate(-16.043 -11.46)" fill="#fff"/>
    </g>
  </g>
</svg>
