<svg xmlns="http://www.w3.org/2000/svg" width="15.761" height="15.694" viewBox="0 0 15.761 15.694">
  <g id="custom-list-check" transform="translate(-414.819 -1521)">
    <g id="Group_38" data-name="Group 38" transform="translate(414.819 1521)">
      <g id="Group_37" data-name="Group 37">
        <g id="Group_36" data-name="Group 36">
          <path id="Path_143" data-name="Path 143" d="M7.88,1a6.529,6.529,0,0,1,4.855,2.028A6.656,6.656,0,0,1,14.763,7.88a6.581,6.581,0,0,1-2.028,4.855A6.656,6.656,0,0,1,7.88,14.763a6.529,6.529,0,0,1-4.855-2.028A6.655,6.655,0,0,1,1,7.847,6.508,6.508,0,0,1,3.026,3.026,6.529,6.529,0,0,1,7.88,1m0-1A7.656,7.656,0,0,0,2.294,2.294,7.635,7.635,0,0,0,0,7.847,7.581,7.581,0,0,0,2.294,13.4,7.6,7.6,0,0,0,7.88,15.694,7.71,7.71,0,0,0,13.467,13.4a7.581,7.581,0,0,0,2.294-5.553,7.581,7.581,0,0,0-2.294-5.553A7.71,7.71,0,0,0,7.88,0Z" fill="#fff"/>
        </g>
      </g>
      <path id="Path_144" data-name="Path 144" d="M12.658,19.582,18.843,13.4l-.964-1-5.22,5.22L10.164,15.16l-.964.964Z" transform="translate(-6.141 -8.277)" fill="#fff"/>
    </g>
  </g>
</svg>
