<svg xmlns="http://www.w3.org/2000/svg" width="41.975" height="36.903" viewBox="0 0 41.975 36.903">
  <g id="hammer-header" transform="translate(-0.019 -0.002)">
    <path id="Path_140" data-name="Path 140" d="M23.516,1.394C22.389.746,15.982-2.5,9.539,3.941L6.564,6.916a2.591,2.591,0,0,0-.722,1.406v.015a2.591,2.591,0,0,1-.722,1.406l-.876.876A1.327,1.327,0,0,1,3.427,11l-.191.015a2.147,2.147,0,0,0-1.436.744L.165,13.669a.593.593,0,0,0,.029.81l2.71,2.71a.593.593,0,0,0,.81.029L5.57,15.613a2.178,2.178,0,0,0,.751-1.539v-.015a1.319,1.319,0,0,1,.39-.876l.876-.876a3.557,3.557,0,0,1,4.588-.376l.758.545s2.629-2.614,3.5-3.5c-.8-.95-3.233-2.923-2.85-4.433.8-3.166,8.947-2.85,9.794-2.806a.147.147,0,0,0,.118-.052l.052-.052A.153.153,0,0,0,23.516,1.394Z" transform="translate(0 0)" fill="#0361b8"/>
    <rect id="Rectangle_158" data-name="Rectangle 158" width="4.963" height="10.133" transform="translate(13.497 12.976) rotate(-45)" fill="#0361b8"/>
    <path id="Path_141" data-name="Path 141" d="M289.033,231.33c-.633.633-2.054,2.047-3.439,3.439a.593.593,0,0,0-.029.81c8.108,9.323,9.956,8.019,13.918,15.037a.816.816,0,0,0,.876.4c1.664-.353,4.352-2.408,5.655-3.468a.978.978,0,0,0,.133-1.392c-5.567-6.576-9.337-10.4-16.348-14.912A.624.624,0,0,0,289.033,231.33Z" transform="translate(-264.384 -214.127)" fill="#0361b8"/>
  </g>
</svg>
