<svg xmlns="http://www.w3.org/2000/svg" width="351.901" height="14.068" viewBox="0 0 351.901 14.068">
  <g id="banner-underline" transform="translate(-0.019 -0.291)">
    <g id="Group_31" data-name="Group 31" transform="translate(0.019 0.291)">
      <g id="Group_30" data-name="Group 30">
        <g id="Group_29" data-name="Group 29">
          <g id="Group_28" data-name="Group 28">
            <path id="Path_89" data-name="Path 89" d="M225.637,8.79c.156-.312.156-.937-.469-.781L224.7,9.1Z" transform="translate(126.177 4.029)" fill="#91caff"/>
            <path id="Path_90" data-name="Path 90" d="M223.488,7.2a1.932,1.932,0,0,0-.937,2.343c.625-.937.781-.469,1.405-1.718a.626.626,0,0,1,.781.781c.156-.312.781.312,1.093-.312a1.565,1.565,0,0,0-2.342-.312C223.332,7.669,223.488,7.356,223.488,7.2Z" transform="translate(124.89 3.589)" fill="#91caff"/>
            <path id="Path_91" data-name="Path 91" d="M191.2,4.7l.312.156A.484.484,0,0,1,191.2,4.7Z" transform="translate(107.361 2.185)" fill="#91caff"/>
            <path id="Path_92" data-name="Path 92" d="M171.515,3.756c.312,0,.312-.156.312-.156C171.671,3.6,171.359,3.6,171.515,3.756Z" transform="translate(96.281 1.567)" fill="#91caff"/>
            <path id="Path_93" data-name="Path 93" d="M168.1,2.8c.156,0,.156,0,.312.156C168.256,2.8,168.256,2.8,168.1,2.8Z" transform="translate(94.387 1.118)" fill="#91caff"/>
            <path id="Path_94" data-name="Path 94" d="M191.481,4.812,190.7,4.5C190.7,4.812,191.168,4.812,191.481,4.812Z" transform="translate(107.08 2.072)" fill="#91caff"/>
            <path id="Path_95" data-name="Path 95" d="M218.6,8.712c.156,0,.312-.156.469-.312a.574.574,0,0,0-.469.156C218.756,8.556,218.756,8.556,218.6,8.712Z" transform="translate(122.751 4.263)" fill="#91caff"/>
            <path id="Path_96" data-name="Path 96" d="M200,4.769h.312a.574.574,0,0,0,.156-.469Z" transform="translate(112.304 1.96)" fill="#91caff"/>
            <path id="Path_97" data-name="Path 97" d="M206.868,4.8c-.312,0-.312.781-.469,1.249a2.156,2.156,0,0,1,.469-.625Z" transform="translate(115.899 2.241)" fill="#91caff"/>
            <path id="Path_98" data-name="Path 98" d="M217.3,6.256l.312-.156A.484.484,0,0,1,217.3,6.256Z" transform="translate(122.021 2.971)" fill="#91caff"/>
            <path id="Path_99" data-name="Path 99" d="M195.256,4.312c0-.156,0-.312-.156-.312A.545.545,0,0,0,195.256,4.312Z" transform="translate(109.552 1.792)" fill="#91caff"/>
            <path id="Path_100" data-name="Path 100" d="M8.342,8.5Z" transform="translate(4.589 4.319)" fill="#91caff"/>
            <path id="Path_101" data-name="Path 101" d="M.2,7.225h0c.156-.312.156-.469,0-.625Z" transform="translate(0.082 3.252)" fill="#91caff"/>
            <path id="Path_102" data-name="Path 102" d="M162,1.942Z" transform="translate(90.96 0.57)" fill="#91caff"/>
            <path id="Path_103" data-name="Path 103" d="M105.337.9c.937.781-1.718.937-.156,1.874C105.025,2.462,106.587,1.525,105.337.9Z" transform="translate(58.764 0.05)" fill="#91caff"/>
            <path id="Path_104" data-name="Path 104" d="M218.668,8.5h0Z" transform="translate(122.526 4.319)" fill="#91caff"/>
            <path id="Path_105" data-name="Path 105" d="M105,2.1Z" transform="translate(58.945 0.724)" fill="#91caff"/>
            <path id="Path_106" data-name="Path 106" d="M147.7,1.8a.545.545,0,0,0,.156.312A.484.484,0,0,0,147.7,1.8Z" transform="translate(82.929 0.556)" fill="#91caff"/>
            <path id="Path_107" data-name="Path 107" d="M158.469,2.956,158,2.8C158.156,2.8,158.312,2.956,158.469,2.956Z" transform="translate(88.714 1.118)" fill="#91caff"/>
            <path id="Path_108" data-name="Path 108" d="M142.425,2.456c-.156,0-.312-.156-.625-.156l.156.156S142.112,2.3,142.425,2.456Z" transform="translate(79.615 0.837)" fill="#91caff"/>
            <path id="Path_109" data-name="Path 109" d="M136.4,2.3l.156.156h.312Z" transform="translate(76.582 0.837)" fill="#91caff"/>
            <path id="Path_110" data-name="Path 110" d="M25.786,7.081c-.156-.312-.312-.469-.469-.781C25.473,6.925,24.224,7.237,25.786,7.081Z" transform="translate(14.006 3.083)" fill="#91caff"/>
            <path id="Path_111" data-name="Path 111" d="M218.812,8.3a.336.336,0,0,1-.312.312h.312Z" transform="translate(122.695 4.207)" fill="#91caff"/>
            <path id="Path_112" data-name="Path 112" d="M142.306,6.856,140.9,6.7A3.877,3.877,0,0,0,142.306,6.856Z" transform="translate(79.109 3.308)" fill="#91caff"/>
            <path id="Path_113" data-name="Path 113" d="M66.612,5.4l-.312.156C66.456,5.556,66.456,5.556,66.612,5.4Z" transform="translate(37.208 2.578)" fill="#91caff"/>
            <path id="Path_114" data-name="Path 114" d="M138.537,6.925a2.742,2.742,0,0,0-.781-.625l-.156.156Z" transform="translate(77.256 3.083)" fill="#91caff"/>
            <path id="Path_115" data-name="Path 115" d="M25.2,6.3Z" transform="translate(14.124 3.083)" fill="#91caff"/>
            <path id="Path_116" data-name="Path 116" d="M30.129,12.33c1.406-.156.469-1.249.781-1.874,1.562-.469.781.781,1.406,1.406.937-.312,1.718-1.406,2.5-1.406,0,.156.156.312,0,.469.937-.937,3.123-.312,4.373-1.406.156.156.156.156.156.312a3.993,3.993,0,0,1-.312-1.718c.625,0,1.093-.781,1.406,0-.312,0-.312.312-.469.625l.625-.312c.625,1.093-.781.469-.781,1.249,1.249-.469,2.655-1.406,3.592-1.093.312,1.093-2.186.469-.937,1.406L40.9,9.675c1.249,1.562-.937,0,.312,1.718,1.874.156,2.186-.625,4.06-.469.469-.625-.156-.937.156-1.406,2.655-1.249,2.343,2.5,4.217,1.093.469-.781.625-2.03,2.03-1.406l-.468,1.249c1.874,0,.937-1.718,2.967-1.093-.312.469-1.406.469-1.093.625,1.249.937.937-.781,1.874-.781l.312,1.093c2.03-.312,4.217-1.093,6.4-1.406-.156.312-.469.625,0,.937,2.811-.625,5.934,0,8.589.469l.937-.937a.335.335,0,0,1,.156.625c1.093.312,0-.625.468-.937a.46.46,0,0,1,.469.781c1.874-.781,5.154-1.874,7.184-.937l-.312.312c1.562.312,1.718-1.874,3.123-1.093l-.312-.469c3.28.312,6.871-.625,9.526.781.468-1.249,3.28.469,3.436-1.249,1.874.937,1.406,1.249,4.06,1.874.781,0,1.093-1.093,1.874-1.406v.937l1.249-1.093.625,1.093.781-.312c-.312,0-.625-.469-.625-.625,1.249-.469,3.123.625,3.123,1.093l2.967-.781c0,.312-.625.469-.937.781,1.562-.937.312.937,1.718.156-.156-.156.156-.625.156-.781a4.682,4.682,0,0,0,3.592.312l-.156.781c2.186.156,4.685-.312,7.184-.312a.813.813,0,0,1,0-1.562l.312,1.093c.625-.781-.625-.469.312-1.249.937.156.625,1.093.156,1.562l1.093-.312c0,.312-.156.469-.312.781.469-.625,2.03,1.093,2.655-.156v.312c2.5,0,3.592-.312,5.778-.469,0-.937.781-.625,1.406-1.406a23.675,23.675,0,0,0,5,.937c1.406-.469.469-.781,1.093-1.249.156.781,1.874.781.937,1.249a28.242,28.242,0,0,0,5.622-.781c-.312-.312-.625-.469-.469-.781.469,0,1.093.469.937.781l-.156.156c3.123-1.093,7.184,2.343,9.682.781l-.156.156,2.5-.781c1.249.156-.781.625.156,1.093,2.811-1.249,4.373.156,6.715-.625,1.718,2.343,6.247-.156,8.589,1.406l-.156-.625c.625-.469.781.312,1.249.469,0-.469-.625-.469-.312-.781,5.154-.625,10.776,1.093,16.085,1.562,1.874.156,1.093-2.811,3.592-1.406l-.781,1.093c3.9-1.093,8.121.156,11.869-.781-.312.156-.312.469-.625.469.781.781,2.967.156,2.967-.469.625.156.156.625.469.937.781.469,2.03-.937,2.5-.156,0,.156-.312.312-.312.312.469-.312,2.5.156,2.03-.781,1.405.469,2.811-.312,3.9.312.781-.937,2.5.469,2.811-.781-.156,1.406,2.5,1.249,3.436.625-.312.469.781.469.469,1.093,1.093,0,2.03-.156,1.874-.937,1.874,1.718,3.9-1.249,5,.937,3.123-.625,5.934-1.093,8.745-1.406-.156,1.406-3.123,0-2.967,1.562,2.655-.469,4.217-1.718,6.871-1.249.625.156-.469.625-.625.781,2.655-.469,5.154.312,7.5-.469,0,.156-.312.312-.469.312.469,0,1.093.312,1.093-.469l-.469.156c-.937-1.093,1.718-2.03,1.718-2.5-.781,1.874,2.342.469.937,2.811a1.038,1.038,0,0,0,.625-.781c.469.156.625.469.156.937,1.718-.312,1.093-.937,2.655-.937,0,.312-.312.469-.469.781a2.946,2.946,0,0,1,2.811-.781c-.156.156,0,.469-.312.469,2.186,0,3.748-1.406,6.091-.781-.781,1.249.781.469.937,1.718l1.249-.312-.469-.625c1.093,0,2.186-.781,3.123-.312l-.781.469,2.186-.156-1.249-.469c1.093-.625,0-1.406,1.406-1.093-.312.156,1.093,0,1.718.781h0c.625-.312,1.093-.781,2.03-.469.156.312-.156,1.249-.156,1.562.625-.937,2.655-.156,3.436-1.249a.753.753,0,0,0-.156.937l.469-.781c.469.312.625.469.469.937,1.562.156-.469-1.562,1.405-.781-.156,0-.156.156-.469.312,1.874.469,3.592-.312,5.31.156.469,1.249-1.562.156-.937,1.249,2.5-.156,5.154-1.249,7.652-.781l-.469-.156c.469-1.718,1.718.937,2.967.156-.312.156-.469.937-.312.781,1.562.312,3.436-.312,5.934-.781l-.312.469c.937.469,2.5.312,3.592.625.312-.469.937-.312.625-.937,3.123,2.5,6.247-1.093,9.058,1.093-.312,0-.781.312-.625.312l2.5-.312c-.156-.781-.312-.469-.781-1.093a1.6,1.6,0,0,1,1.562-.625c-1.093.469,0,1.093.469,1.562,0-.156.156-.469,0-.625,1.249,1.406.312-1.406,2.03-.469l-.312-.156c.625-.156,1.249-.625,2.03-.469.312.781-.781.312-.781,1.093.937,0,2.03-1.562,2.811-.625-.469.156-1.093.156-1.406.469.937,1.093,1.093.781,1.718.937h0l1.718.469-.469-.312c1.406-2.186,2.5-.312,4.217-1.562-1.718,1.249-.312.781-.469,1.718.469.312,1.093.625.781.937.781-.781,1.249.625,2.5-.469,0,.312.781,0,.625.781,1.093-.156-.156-.469-.156-.937,1.562-.937,3.592,1.406,5.934.156,2.03-.469,2.342-1.562,4.216-1.874.625.469-.625,1.093-.625,1.093a3.17,3.17,0,0,0,2.655.156c-.156.312,0,.469.312.781.781,0,.625-1.093,1.562-.625a5.479,5.479,0,0,1-.781,1.249,17.965,17.965,0,0,1,2.655-.937c.156.469-.625.781-.937,1.093,1.093-.156,2.655-.312,2.967-1.249l-.625-.312c.312,0,.156.781-.156.937-.937.625-1.249-.312-1.249-.625l.625-.156c-.625-1.874-2.655.156-3.9,0l.625-1.249-1.405,1.093c-.312-.312-.469-1.093.156-1.249-.937-.625-.781.469-1.562-.312-.156-.156,0-.156,0-.156l-.937.312c.156-.312-.156-.937.469-.781-1.562-.781-2.655.781-3.28-.156h.156c-2.342.312-.312.937-2.03,2.03l-.781-2.967-.312.937c-.156,0-.625-.156-.625-.469-.937.625.156.469-.469.937-1.093-.937-3.123.312-3.28-1.249-.469.781,1.093.625-.156,1.093-.312-1.718-1.405.156-2.342-.625.312-.781,1.249-.312.312-1.093-.625,1.406-2.03-.469-2.811-.156-.156,1.093-1.874.312-3.436.781.156-.312-2.655-.781-4.06-1.249V7.332c-.312,1.093-1.718.781-2.811,1.093a1.391,1.391,0,0,1,.781-1.249h-.937a2.352,2.352,0,0,1-1.249.625l.312-.781c-1.249,0-2.655.937-4.216.312-.156.781,1.249,2.343-.469,2.811,0-.469-.156-1.249.312-1.406-.156,0-.625.312-.781.156l.781-.625c-.781-.312-.469.625-.937.469,0-.625-.469-.469-.312-.937.156,0,.469.312.781,0a2.56,2.56,0,0,1-1.718-1.093c0,.312,0,.781-.469.937-1.249,0-.469-.781-1.093-1.093-.312.469-1.093,0-1.249.781-.312,0-.469-.469-.625-.781-.625.312-3.123,0-2.342.937h0c-2.186.781-4.529-.625-6.715-.312V6.864c-1.249.312-2.811.156-3.748.781-.312,0-.937-.625-.625-.937a3.387,3.387,0,0,1-2.5,0c.937-.469-.312-.469,1.093-.312-1.249-.312-1.562-.781-2.967,0,.469-.781-.937-1.093-1.562-.781l.937.625a3.845,3.845,0,0,1-1.874-.156l.312-1.093c-2.5-1.406-4.841,2.03-6.715-.156-.781.625,1.405.625.781,1.406-1.249-.156-2.342-1.718-2.811-1.718-1.562-.625-1.562,1.406-3.28.937a1.223,1.223,0,0,1-.937,1.718c-1.249-.156-1.405-1.562-.625-1.874a.684.684,0,0,1,.469.156c.469-.156.937-.312.469-.625l-.156.312c-.625-.469-2.186-.469-1.874-.937-.937.312-.469.625.312.781-1.562-.625-2.342-.156-4.06-.469.312.156.469.625.156.625-2.342-.469-1.093.625-2.655.781-.937-.625.312-1.406-1.249-.937-.937-.469-.156-.937.156-1.249-1.405.625-2.655-.625-3.436-.781l.781-.312a3.439,3.439,0,0,1-1.249.156l.468.781c-.468-.156-.781-.156-.781-.469-.469.469.312,1.249-.625,1.874-.625-.469-1.874.312-2.03-.625,1.874.469-.156-.937,1.406-1.093a1.321,1.321,0,0,1-1.093,0c0-.156,0-.156.156-.312-1.718-.937-.937,1.093-2.655.937.312-.469-.469-1.093-.781-.937.781,0,.312.937-.312,1.406-1.249-.469-1.249.312-1.874.156l.781.156c-.312.625-.781.469-1.718.625,0-.469.781-.312.469-.469-.937.937-2.03-1.093-3.436-.469-.625-.469,0-1.093-.469-1.249-1.405.625-1.562-.781-3.123-.312.469.781.469.625-.625,1.249l2.5-.469L240.33,4.677c.781,0,1.562-.469,2.03-.312-.781.625-.625.469-.312,1.093-.937-1.093-2.03.625-3.28-.156l.156-1.874c-1.718-.937-3.28.781-5.466.312l.781.312c-.312.781-1.405,0-2.186.312.156-.625-.312-.781-.625-1.249,0,.469-1.718-.156-1.874,1.093l-1.093-.781c-1.874-.312-2.186,1.718-4.06,1.406.625-.625-.312-1.093.937-1.562-.625,0-1.093-.156-1.093.312-.312-.469-1.718.781-2.186.156-.312.312-.312.937-1.093.781V4.209c0,.312-1.093.312-.469,1.093-1.874-2.03-5.154,0-6.715-1.718a38.451,38.451,0,0,1-4.06.312c.156-.156,0-.312.312-.312-1.562-.625-1.093,1.718-2.967,1.093-.937-1.093.937-.469.469-.937-.156-2.03-2.343.156-3.436-.937l.312-.156c-.937-.781-2.342.781-3.9.625a.216.216,0,0,0,0-.312c-1.093.937-3.123,1.249-4.685,1.562.469-.781.625-.469.469-1.249-.625.156.156,1.249-1.249,1.562-.469-.469-1.406-.781-1.562-1.718h1.249c-.625-1.093-1.718,0-2.343-.156l.156-.469c-2.03.156-2.03,1.406-4.06,1.249l.156.312c-1.249,1.249-.937-.625-2.186.156l-.937-1.249a29.835,29.835,0,0,1-4.06,1.406c.781-.937,2.342-1.406,3.436-1.874-.781,0-2.5,0-2.967.625.312-.156.625-.469.937-.156a4.947,4.947,0,0,1-3.592,1.406c.312-2.343-3.9-.625-5-2.5-2.655.781-5.31-.469-8.433-.312,1.093,1.874-.937,0-.781,2.03-.781.156-.937.156-1.093,0l-2.186-1.093c-.469-.625.625-.469.625-.781-1.562-.156-.625-.781-1.718-1.406.156.625-.625.937-1.406.781l1.249.937c-2.186.937-1.874-1.562-4.06-.625l.781-.625c-1.093.312-4.217,0-5.31,1.406-.156-.156-.469-.781,0-.937-2.655-.312-6.091,1.562-8.121.625l.156-.469c-.469.156-.937.937-1.562.469,0-.156.156-.469,0-.469-.312-.469-1.406.312-2.186,0l.625-.469c-2.655-.625-4.06,1.249-6.247,1.562,0-1.406-2.03-1.874-3.123-2.03V.3c-3.123-.156-5.31,1.093-8.121,1.718-1.718-1.562-6.091-.625-8.9-1.406.469.312,0,1.093-.625,1.249-.625-.469-1.874.781-1.718-.469h.312c-.469-1.249-1.874-.937-2.967-.937l-.156,1.718c-2.811-2.343-7.34.937-8.9-1.093-.625.469-1.562.469-2.186.781V.929a18.9,18.9,0,0,0-5.154,0L93.533.3c-1.249,0-1.562,2.5-2.811,2.655L90.41,1.71c-2.343,0-4.685-1.093-6.871.156,0-.156.156-.625.469-.625-1.093,0-4.217-.781-3.748.937,0-1.249-2.343,0-3.592.469l-.156-.937c-1.093,1.093-1.093,1.406-2.5,1.718-.312-.156-.312-.625.156-.469-1.093-.469-.937.781-2.343.469l.469-.625c-1.249,0-1.093.312-1.718.937a2.22,2.22,0,0,1-2.5-.937c-.156.469-.781,1.093-1.406.937-.156-.312.156-.469.312-.625-2.03-.469-2.967,1.093-4.373.312,0-.312-.156-.469-.312-.469h2.655c0-.781-1.249-.937-.312-2.03-.781.625-2.5,2.03-3.748,1.718a.545.545,0,0,1-.156-.312h.156a1.408,1.408,0,0,0-.781.156,2.658,2.658,0,0,0-1.093-.156c-.156-.625-1.406-.312-2.186-.312.156.937-.781.781,0,1.406-.156,0,.156-.156.469-.156.156,0,.156,0,.312-.156v.156c.468,0,.937-.156,1.562-.156-.469.469-.937.937-1.718.469a9,9,0,0,1-.781,1.406c-.937-1.249-2.655-1.718-2.811-2.5-1.874.469-4.529.469-5.622,2.186-.469.312-.625-.469-.937-.625.312-.156.625-.156.781-.469C47,4.053,44.809,3.9,44.653,4.99c-1.406-.469.781-1.093-1.249-.781l.312-.312c-3.9-1.562-5.934,3.28-10.151,1.249.312.156.468.156.468.312-4.841-.781-9.682,1.718-14.524.469-1.406-.156-1.406.625-2.186,1.249l-.312-.937L15.762,7.489c-1.874.937-3.748-1.874-5.934-.156l.469.625c-.937,0-2.811.781-2.655,0a.475.475,0,0,1-.625.469L6.7,7.957,4.674,9.05c-1.718,0,0-2.03-2.655-1.562-.469.156-.937.781-1.406,1.249s-.781.937-.469,1.093a.984.984,0,0,1,1.249.469l-.937.469c.312,1.406.156,2.967,2.186,3.592.312-.469.781-.781,1.093-1.249l.625.625a9.952,9.952,0,0,0-1.093.312c.781.469,1.093-.156,1.406-.625a1.038,1.038,0,0,0,.781.625l1.093-1.562c.156.625-.469,1.249.469,1.406.625-.781-.781-1.093.156-1.718.781.625.625,1.093,1.406.469a.57.57,0,0,1-.312.781c.625-.469,1.874-.469,2.03-1.249.781.781,2.343-.469,2.5.781a5.616,5.616,0,0,1,1.874-1.249c-.937,1.718,2.5-.156,2.343,1.562.781-1.562,3.123-.937,4.529-2.03a.336.336,0,0,1-.312.312,2.539,2.539,0,0,1,1.718.781c0-1.249,1.406-1.562,2.03-2.5,1.249,1.093-.469,1.562-.156,2.655-.156-.937,1.874-1.093,1.406-1.874.937.625.781.312,1.249,1.249,0-1.562.781-.312,1.406-1.249,1.249.625.469,1.406,1.718.781C31.222,11.705,30.129,12.33,30.129,12.33Zm31.39-4.373h0c-.312,0-.469.156-.625.156A1.556,1.556,0,0,0,61.519,7.957Zm2.655,0H63.081c-.156-.312,0-.625.312-.625C63.081,7.489,63.705,7.645,64.174,7.957ZM58.239,2.023c.469-.156.625,0,.625.156a1.7,1.7,0,0,0-.781.156v.156C58.083,2.335,58.239,2.179,58.239,2.023Z" transform="translate(-0.019 -0.291)" fill="#91caff"/>
            <path id="Path_117" data-name="Path 117" d="M36.956,2.2H36.8c.156,0,.156.156.312.156V2.2Z" transform="translate(20.639 0.781)" fill="#91caff"/>
            <path id="Path_118" data-name="Path 118" d="M191.5,4.8Z" transform="translate(107.53 2.241)" fill="#91caff"/>
            <path id="Path_119" data-name="Path 119" d="M64.712,5.756V5.6l-.312.156Z" transform="translate(36.141 2.69)" fill="#91caff"/>
            <path id="Path_120" data-name="Path 120" d="M200.8,7.2c0,.156,0,.156.156.156Z" transform="translate(112.753 3.589)" fill="#91caff"/>
            <path id="Path_121" data-name="Path 121" d="M204.8,7.5l.937.312A2.22,2.22,0,0,0,204.8,7.5Z" transform="translate(115 3.757)" fill="#91caff"/>
            <path id="Path_122" data-name="Path 122" d="M207.9,8.012a.545.545,0,0,1,.156-.312h0Z" transform="translate(116.741 3.87)" fill="#91caff"/>
            <path id="Path_123" data-name="Path 123" d="M158.542,6.6h-.156C157.917,6.912,158.23,6.756,158.542,6.6Z" transform="translate(88.796 3.252)" fill="#91caff"/>
            <path id="Path_124" data-name="Path 124" d="M173.481,5.8c-.312.156-.469.312-.781.312C173.012,6.425,173.325,6.425,173.481,5.8Z" transform="translate(96.97 2.803)" fill="#91caff"/>
            <path id="Path_125" data-name="Path 125" d="M141.9,6.925Z" transform="translate(79.671 3.395)" fill="#91caff"/>
            <path id="Path_126" data-name="Path 126" d="M172,6.125a1.321,1.321,0,0,0,1.093,0C172.781,6.125,172.312,5.969,172,6.125Z" transform="translate(96.577 2.946)" fill="#91caff"/>
            <path id="Path_127" data-name="Path 127" d="M221.4,8.756h.156V8.6Z" transform="translate(124.324 4.375)" fill="#91caff"/>
            <path id="Path_128" data-name="Path 128" d="M221.6,8.756l.312-.156C221.756,8.6,221.6,8.6,221.6,8.756Z" transform="translate(124.436 4.375)" fill="#91caff"/>
            <path id="Path_129" data-name="Path 129" d="M222.325,8.5l-.625.156C222.012,8.656,222.168,8.812,222.325,8.5Z" transform="translate(124.492 4.319)" fill="#91caff"/>
            <path id="Path_130" data-name="Path 130" d="M217.356,8.3l-.156.312C217.356,8.612,217.356,8.456,217.356,8.3Z" transform="translate(121.965 4.207)" fill="#91caff"/>
            <path id="Path_131" data-name="Path 131" d="M216.1,8.339c.469.156,1.093.781,1.874.625V8.651C217.505,9.119,216.568,7.87,216.1,8.339Z" transform="translate(121.347 4.168)" fill="#91caff"/>
            <path id="Path_132" data-name="Path 132" d="M210.9,5.948l1.562.312c-.312-.312-.625-.781.156-.937C210.744,4.231,213.086,6.1,210.9,5.948Z" transform="translate(118.426 2.342)" fill="#91caff"/>
            <path id="Path_133" data-name="Path 133" d="M207.848,5.325c.937-.156,0-.469,0-.625C207.38,4.856,207.224,5.012,207.848,5.325Z" transform="translate(116.481 2.185)" fill="#91caff"/>
            <path id="Path_134" data-name="Path 134" d="M184.146,4.381,184.3,3.6C183.677,3.756,184.3,3.912,184.146,4.381Z" transform="translate(103.327 1.567)" fill="#91caff"/>
            <path id="Path_135" data-name="Path 135" d="M179.5,6.656l.781.469.312-.625Z" transform="translate(100.79 3.196)" fill="#91caff"/>
            <path id="Path_136" data-name="Path 136" d="M177.281,2.956l.312-.156-1.093.312Z" transform="translate(99.105 1.118)" fill="#91caff"/>
            <path id="Path_137" data-name="Path 137" d="M137.4,1.82l.156.937C138.181,2.6,138.181,1.508,137.4,1.82Z" transform="translate(77.143 0.536)" fill="#91caff"/>
            <path id="Path_138" data-name="Path 138" d="M120.862,2.3a1.068,1.068,0,0,0-1.562-.312A8.79,8.79,0,0,1,120.862,2.3Z" transform="translate(66.977 0.529)" fill="#91caff"/>
            <path id="Path_139" data-name="Path 139" d="M69.268.712,69.737.4,68.8.712Z" transform="translate(38.613 -0.23)" fill="#91caff"/>
          </g>
        </g>
      </g>
    </g>
  </g>
</svg>
